<?xml version="1.0" encoding="iso-8859-1"?>
<!-- Generator: Adobe Illustrator 29.3.1, SVG Export Plug-In . SVG Version: 9.03 Build 55982)  -->
<svg version="1.1" id="Capa_1" xmlns="http://www.w3.org/2000/svg" xmlns:xlink="http://www.w3.org/1999/xlink" x="0px" y="0px"
	 viewBox="0 0 512 512" style="enable-background:new 0 0 512 512;" xml:space="preserve">
<g>
	<path d="M449.483,200.869h-14.345c-3.223-47.273-42.705-84.749-90.781-84.749H267V80.489c17.281-4.82,30-20.692,30-39.489
		c0-22.607-18.393-41-41-41s-41,18.393-41,41c0,18.797,12.719,34.669,30,39.489v35.631h-77.358
		c-48.076,0-87.558,37.476-90.781,84.749H62.517C28.045,200.869,0,228.914,0,263.385c0,23.658,13.211,44.287,32.642,54.903v74.037
		c0,50.178,40.822,91,91,91h88.819v-22h-88.819c-38.047,0-69-30.953-69-69v-66.937c2.582,0.326,5.206,0.513,7.875,0.513h14.125
		v33.749c0,28.122,22.878,51,51,51h256.715c28.121,0,51-22.878,51-51v-33.749h14.126c34.472,0,62.517-28.045,62.517-62.517
		S483.955,200.869,449.483,200.869z M237,41c0-10.477,8.523-19,19-19s19,8.523,19,19s-8.523,19-19,19S237,51.477,237,41z
		 M62.517,303.902C40.176,303.902,22,285.726,22,263.385s18.176-40.517,40.517-40.517h14.125v81.033H62.517z M413.357,359.651
		c0,15.991-13.01,29-29,29H127.642c-15.991,0-29-13.009-29-29V207.12c0-38.047,30.953-69,69-69h176.715c38.047,0,69,30.953,69,69
		V359.651z M449.483,303.902h-14.126v-81.033h14.126c22.341,0,40.517,18.176,40.517,40.517S471.824,303.902,449.483,303.902z"/>
	<g>
		<path style="fill:#33CCCC;" d="M326.542,297.256c-4.683-3.867-11.618-3.206-15.485,1.48
			c-13.597,16.469-33.705,25.915-55.168,25.915c-21.345,0-41.383-9.361-54.975-25.682c-3.887-4.668-10.823-5.302-15.492-1.414
			c-4.668,3.887-5.301,10.823-1.414,15.492c17.784,21.356,43.983,33.604,71.88,33.604c28.051,0,54.343-12.359,72.133-33.909
			C331.89,308.057,331.227,301.124,326.542,297.256z"/>
		<path style="fill:#33CCCC;" d="M223.461,221.869c0-19.851-16.149-36-36-36s-36,16.149-36,36s16.149,36,36,36
			S223.461,241.719,223.461,221.869z M173.461,221.869c0-7.72,6.28-14,14-14s14,6.28,14,14s-6.28,14-14,14
			S173.461,229.588,173.461,221.869z"/>
		<path style="fill:#33CCCC;" d="M324.539,185.869c-19.851,0-36,16.149-36,36s16.149,36,36,36s36-16.149,36-36
			S344.39,185.869,324.539,185.869z M324.539,235.869c-7.72,0-14-6.28-14-14s6.28-14,14-14s14,6.28,14,14
			S332.259,235.869,324.539,235.869z"/>
		<path style="fill:#33CCCC;" d="M270.864,432.651h-29.729c-21.876,0-39.674,17.798-39.674,39.675
			c0,21.876,17.798,39.674,39.674,39.674h29.729c21.877,0,39.675-17.798,39.675-39.675
			C310.539,450.449,292.741,432.651,270.864,432.651z M270.864,490h-29.729c-9.746,0-17.674-7.929-17.674-17.675
			c0-9.746,7.929-17.674,17.674-17.674h29.729c9.746,0,17.675,7.929,17.675,17.675C288.539,482.071,280.61,490,270.864,490z"/>
	</g>
</g>
<g>
</g>
<g>
</g>
<g>
</g>
<g>
</g>
<g>
</g>
<g>
</g>
<g>
</g>
<g>
</g>
<g>
</g>
<g>
</g>
<g>
</g>
<g>
</g>
<g>
</g>
<g>
</g>
<g>
</g>
</svg>
